<?xml version="1.0" encoding="utf-8"?><svg xmlns="http://www.w3.org/2000/svg" xmlns:xlink="http://www.w3.org/1999/xlink"><symbol viewBox="0 0 11 11" id="arrow" xmlns="http://www.w3.org/2000/svg"><path d="m5.347.218 4.89 4.876c.059.058.1.12.124.188.024.068.037.14.037.218 0 .077-.013.15-.037.218a.505.505 0 0 1-.123.188l-4.89 4.89a.689.689 0 0 1-.509.204.713.713 0 0 1-.522-.218.696.696 0 0 1-.218-.508c0-.193.073-.362.218-.508L8.583 5.5 4.317 1.234a.68.68 0 0 1-.203-.5c0-.2.072-.371.218-.516A.696.696 0 0 1 4.838 0c.194 0 .363.073.508.218Z"/><path d="m1.248.218 4.89 4.876c.058.058.1.12.123.188.025.068.037.14.037.218 0 .077-.012.15-.037.218a.506.506 0 0 1-.123.188l-4.89 4.89A.689.689 0 0 1 .74 11a.713.713 0 0 1-.523-.218.696.696 0 0 1-.217-.508c0-.193.072-.362.217-.508L4.484 5.5.217 1.234a.68.68 0 0 1-.203-.5c0-.2.073-.371.218-.516A.696.696 0 0 1 .74 0c.193 0 .363.073.508.218Z"/></symbol></svg>