<?xml version="1.0" encoding="utf-8"?><!DOCTYPE svg  PUBLIC '-//W3C//DTD SVG 1.1//EN'  'http://www.w3.org/Graphics/SVG/1.1/DTD/svg11.dtd'><svg xmlns="http://www.w3.org/2000/svg" xmlns:xlink="http://www.w3.org/1999/xlink"><symbol viewBox="0 0 11 11" id="arrow" xmlns="http://www.w3.org/2000/svg"><path d="m5.347.218 4.89 4.876c.059.058.1.12.124.188.024.068.037.14.037.218 0 .077-.013.15-.037.218a.505.505 0 0 1-.123.188l-4.89 4.89a.689.689 0 0 1-.509.204.713.713 0 0 1-.522-.218.696.696 0 0 1-.218-.508c0-.193.073-.362.218-.508L8.583 5.5 4.317 1.234a.68.68 0 0 1-.203-.5c0-.2.072-.371.218-.516A.696.696 0 0 1 4.838 0c.194 0 .363.073.508.218Z"/><path d="m1.248.218 4.89 4.876c.058.058.1.12.123.188.025.068.037.14.037.218 0 .077-.012.15-.037.218a.506.506 0 0 1-.123.188l-4.89 4.89A.689.689 0 0 1 .74 11a.713.713 0 0 1-.523-.218.696.696 0 0 1-.217-.508c0-.193.072-.362.217-.508L4.484 5.5.217 1.234a.68.68 0 0 1-.203-.5c0-.2.073-.371.218-.516A.696.696 0 0 1 .74 0c.193 0 .363.073.508.218Z"/></symbol><symbol viewBox="0 0 237.54 237.54" style="enable-background:new 0 0 237.54 237.54" xml:space="preserve" id="clock" xmlns="http://www.w3.org/2000/svg"><path d="M118.77 0c32.8 0 62.49 13.29 83.98 34.79 21.49 21.49 34.79 51.19 34.79 83.98s-13.29 62.49-34.79 83.98c-21.49 21.49-51.19 34.79-83.98 34.79-32.8 0-62.49-13.29-83.98-34.79C13.29 181.26 0 151.56 0 118.77s13.29-62.49 34.79-83.98C56.28 13.29 85.97 0 118.77 0zm-9.71 60.2a6.5 6.5 0 1 1 13 0v60l45.14 26.76a6.499 6.499 0 0 1 2.29 8.89 6.499 6.499 0 0 1-8.89 2.29l-47.99-28.45a6.504 6.504 0 0 1-3.55-5.79V60.2zm84.5-16.22C174.42 24.84 147.98 13 118.77 13c-29.21 0-55.65 11.84-74.79 30.98C24.84 63.12 13 89.56 13 118.77c0 29.21 11.84 55.65 30.98 74.79 19.14 19.14 45.58 30.98 74.79 30.98 29.21 0 55.65-11.84 74.79-30.98 19.14-19.14 30.98-45.58 30.98-74.79 0-29.21-11.84-55.65-30.98-74.79z"/></symbol><symbol viewBox="0 0 496 512" id="git" xmlns="http://www.w3.org/2000/svg"><path d="M165.9 397.4c0 2-2.3 3.6-5.2 3.6-3.3.3-5.6-1.3-5.6-3.6 0-2 2.3-3.6 5.2-3.6 3-.3 5.6 1.3 5.6 3.6zm-31.1-4.5c-.7 2 1.3 4.3 4.3 4.9 2.6 1 5.6 0 6.2-2s-1.3-4.3-4.3-5.2c-2.6-.7-5.5.3-6.2 2.3zm44.2-1.7c-2.9.7-4.9 2.6-4.6 4.9.3 2 2.9 3.3 5.9 2.6 2.9-.7 4.9-2.6 4.6-4.6-.3-1.9-3-3.2-5.9-2.9zM244.8 8C106.1 8 0 113.3 0 252c0 110.9 69.8 205.8 169.5 239.2 12.8 2.3 17.3-5.6 17.3-12.1 0-6.2-.3-40.4-.3-61.4 0 0-70 15-84.7-29.8 0 0-11.4-29.1-27.8-36.6 0 0-22.9-15.7 1.6-15.4 0 0 24.9 2 38.6 25.8 21.9 38.6 58.6 27.5 72.9 20.9 2.3-16 8.8-27.1 16-33.7-55.9-6.2-112.3-14.3-112.3-110.5 0-27.5 7.6-41.3 23.6-58.9-2.6-6.5-11.1-33.3 2.6-67.9 20.9-6.5 69 27 69 27 20-5.6 41.5-8.5 62.8-8.5s42.8 2.9 62.8 8.5c0 0 48.1-33.6 69-27 13.7 34.7 5.2 61.4 2.6 67.9 16 17.7 25.8 31.5 25.8 58.9 0 96.5-58.9 104.2-114.8 110.5 9.2 7.9 17 22.9 17 46.4 0 33.7-.3 75.4-.3 83.6 0 6.5 4.6 14.4 17.3 12.1C428.2 457.8 496 362.9 496 252 496 113.3 383.5 8 244.8 8zM97.2 352.9c-1.3 1-1 3.3.7 5.2 1.6 1.6 3.9 2.3 5.2 1 1.3-1 1-3.3-.7-5.2-1.6-1.6-3.9-2.3-5.2-1zm-10.8-8.1c-.7 1.3.3 2.9 2.3 3.9 1.6 1 3.6.7 4.3-.7.7-1.3-.3-2.9-2.3-3.9-2-.6-3.6-.3-4.3.7zm32.4 35.6c-1.6 1.3-1 4.3 1.3 6.2 2.3 2.3 5.2 2.6 6.5 1 1.3-1.3.7-4.3-1.3-6.2-2.2-2.3-5.2-2.6-6.5-1zm-11.4-14.7c-1.6 1-1.6 3.6 0 5.9 1.6 2.3 4.3 3.3 5.6 2.3 1.6-1.3 1.6-3.9 0-6.2-1.4-2.3-4-3.3-5.6-2z"/></symbol><symbol viewBox="0 0 512 512" xml:space="preserve" id="github" xmlns="http://www.w3.org/2000/svg"><path d="M258.6 507.2C120.3 507.7 6.5 392.6 9.9 251.7 13.1 117.8 124.1 7.1 262.1 8.7c136.7 1.6 249.5 115.4 246 255.8C504.8 398 394.7 508 258.6 507.2zM230 387.7c-12.2-3.9-24.6-6.8-36-11.9-23.2-10.4-37.9-28.4-42.6-53.7-3-16.4-1.8-32.9.2-49.3 1.8-14.5 6-28 17-38.5.8-.8.9-3.1.4-4.3-5.3-14.5-4.7-29-.4-43.7 1.3-4.4 3.4-4.9 7.2-3.7 10 3.1 18.1 9.1 25 16.7 3.7 4 7 8.4 10.5 12.6 20.8-13.5 80.3-13.5 102.1-.2 4.2-4.9 8.2-10 12.7-14.7 6.7-6.9 14.5-12.2 24-14.8 3.1-.9 4.8-.2 5.9 3.1 4.9 14.5 5.8 29 0 43.5-1.1 2.9-1 4.8 1.3 7 6.9 6.6 11.1 14.9 13.3 24.2 4.2 17.3 5.1 35 3.9 52.6-1.3 18.9-8.4 35.5-22.3 48.8-11.7 11.1-25.7 17.7-41.1 21.6-5.6 1.4-11.2 2.4-17.2 3.6 7.7 11.8 9.6 24.6 9.3 38-.3 14.3-.1 28.7-.1 43 0 1.7.1 3.5.2 5.3 91.3-16.6 183.5-107.5 173.4-233.4C467.2 119.4 360.9 27.2 237.9 39 123 50 30.8 152.5 41.2 276.7c9.9 117.5 105.1 187.9 179.6 197.1v-25.6c-4.1.6-7.8 1.1-11.4 1.5-26.8 3-48.1-9-60-32.9-6.5-13.1-13.4-26.2-26.2-34.6-1.4-.9-2.2-2.6-3.4-4.1 1.1-.8 1.6-1.2 2.2-1.5.8-.3 1.6-.4 2.4-.5 9-.6 17.5 1 24.2 7.3 4.4 4.1 8.4 9 11.7 14.1 12.6 19.7 34.3 28 56.4 21.4 3-.9 4.7-2.2 5-5.7.6-9.4 3.2-18.3 8.3-25.5z"/></symbol><symbol style="fill-rule:evenodd;clip-rule:evenodd;stroke-linejoin:round;stroke-miterlimit:2" viewBox="0 0 64 64" xml:space="preserve" id="instagram" xmlns="http://www.w3.org/2000/svg"><path style="fill:none" d="M0 0h64v64H0z"/><path d="M61.25 18c0-8.417-6.833-15.25-15.25-15.25H18C9.583 2.75 2.75 9.583 2.75 18v28c0 8.417 6.833 15.25 15.25 15.25h28c8.417 0 15.25-6.833 15.25-15.25V18Zm-2.5 0v28c0 7.037-5.713 12.75-12.75 12.75H18c-7.037 0-12.75-5.713-12.75-12.75V18c0-7.037 5.713-12.75 12.75-12.75h28c7.037 0 12.75 5.713 12.75 12.75Z"/><path d="M32 17.5c-8.003 0-14.5 6.497-14.5 14.5S23.997 46.5 32 46.5 46.5 40.003 46.5 32 40.003 17.5 32 17.5Zm0 2.5c6.623 0 12 5.377 12 12s-5.377 12-12 12-12-5.377-12-12 5.377-12 12-12ZM49 10.75A4.252 4.252 0 0 0 44.75 15 4.252 4.252 0 0 0 49 19.25 4.252 4.252 0 0 0 53.25 15 4.252 4.252 0 0 0 49 10.75Zm0 2.5a1.751 1.751 0 0 1 0 3.5 1.751 1.751 0 0 1 0-3.5Z"/></symbol><symbol viewBox="0 0 640 512" id="link" xmlns="http://www.w3.org/2000/svg"><path d="M579.8 267.7c56.5-56.5 56.5-148 0-204.5-50-50-128.8-56.5-186.3-15.4l-1.6 1.1c-14.4 10.3-17.7 30.3-7.4 44.6s30.3 17.7 44.6 7.4l1.6-1.1c32.1-22.9 76-19.3 103.8 8.6 31.5 31.5 31.5 82.5 0 114L422.3 334.8c-31.5 31.5-82.5 31.5-114 0-27.9-27.9-31.5-71.8-8.6-103.8l1.1-1.6c10.3-14.4 6.9-34.4-7.4-44.6s-34.4-6.9-44.6 7.4l-1.1 1.6C206.5 251.2 213 330 263 380c56.5 56.5 148 56.5 204.5 0l112.3-112.3zM60.2 244.3c-56.5 56.5-56.5 148 0 204.5 50 50 128.8 56.5 186.3 15.4l1.6-1.1c14.4-10.3 17.7-30.3 7.4-44.6s-30.3-17.7-44.6-7.4l-1.6 1.1c-32.1 22.9-76 19.3-103.8-8.6C74 372 74 321 105.5 289.5l112.2-112.3c31.5-31.5 82.5-31.5 114 0 27.9 27.9 31.5 71.8 8.6 103.9l-1.1 1.6c-10.3 14.4-6.9 34.4 7.4 44.6s34.4 6.9 44.6-7.4l1.1-1.6C433.5 260.8 427 182 377 132c-56.5-56.5-148-56.5-204.5 0L60.2 244.3z"/></symbol><symbol xml:space="preserve" viewBox="0 0 144.083 144" id="linkedin" xmlns="http://www.w3.org/2000/svg"><path d="M72.041 11.166c-33.543 0-60.833 27.29-60.833 60.834 0 33.545 27.29 60.834 60.833 60.834 33.544 0 60.835-27.289 60.835-60.834-.001-33.544-27.292-60.834-60.835-60.834zm0 115.668c-30.235 0-54.833-24.598-54.833-54.834 0-30.235 24.598-54.834 54.833-54.834S126.876 41.765 126.876 72c-.001 30.236-24.6 54.834-54.835 54.834z"/><path d="M41.143 59.11h14.078v36.734H41.143z"/><ellipse cx="48.042" cy="46.75" rx="7.125" ry="6.5"/><path d="M90.608 58.28c-2.883 0-5.326.525-7.334 1.574-2.006 1.05-3.988 2.796-5.949 5.24V59.11h-13.11v36.734h14.078V78.203c0-3.344.531-5.66 1.592-6.952 1.061-1.291 2.443-1.937 4.15-1.937 1.545 0 2.744.479 3.598 1.436.854.957 1.279 2.588 1.279 4.895v20.199h14.148V72.497c0-4.843-1.102-8.423-3.305-10.741-2.2-2.318-5.251-3.476-9.147-3.476z"/></symbol><symbol viewBox="0 0 128 128" id="slider_arrow" xmlns="http://www.w3.org/2000/svg"><path d="M64 0a64 64 0 1 0 64 64A64.07 64.07 0 0 0 64 0Zm0 122a58 58 0 1 1 58-58 58.07 58.07 0 0 1-58 58Z"/><path d="M74.12 35.88a3 3 0 0 0-4.24 0l-26 26a3 3 0 0 0 0 4.24l26 26a3 3 0 0 0 4.24-4.24L50.24 64l23.88-23.88a3 3 0 0 0 0-4.24Z"/></symbol><symbol viewBox="0 0 256 256" id="telegram" xmlns="http://www.w3.org/2000/svg"><path d="M228.646 34.768a11.965 11.965 0 0 0-12.218-2.076L31.871 105.197a12 12 0 0 0 2.035 22.935L84 138.152v61.832a11.814 11.814 0 0 0 7.408 11.086 12.171 12.171 0 0 0 4.668.945 11.832 11.832 0 0 0 8.41-3.546l28.596-28.596 42.193 37.13a11.898 11.898 0 0 0 7.888 3.002 12.112 12.112 0 0 0 3.723-.59 11.898 11.898 0 0 0 8.013-8.74l37.614-164.133a11.972 11.972 0 0 0-3.867-11.774Zm-196.371 81.95a3.866 3.866 0 0 1 2.522-4.075L203.972 46.18l-116.9 84.428-51.597-10.32a3.866 3.866 0 0 1-3.2-3.57Zm66.553 86.095A4 4 0 0 1 92 199.984V143.72l35.064 30.857ZM224.715 44.755 187.1 208.888a4 4 0 0 1-6.541 2.11L94.405 135.18l129.663-93.645a3.807 3.807 0 0 1 .647 3.219Z"/></symbol></svg>